<svg width="44" height="46" viewBox="0 0 44 46" fill="none" xmlns="http://www.w3.org/2000/svg">
<path d="M42.2738 37.5397C41.1701 34.9575 39.5684 32.6121 37.5579 30.6339C35.5535 28.6501 33.1791 27.0684 30.5659 25.9761C30.5425 25.9646 30.5191 25.9588 30.4957 25.9472C34.1409 23.3467 36.5105 19.1108 36.5105 14.3317C36.5105 6.41457 30.0159 0 22 0C13.9841 0 7.48946 6.41457 7.48946 14.3317C7.48946 19.1108 9.85912 23.3467 13.5043 25.953C13.4809 25.9646 13.4575 25.9704 13.4341 25.9819C10.8128 27.0741 8.46073 28.6402 6.44213 30.6397C4.43352 32.6194 2.83207 34.9645 1.7262 37.5455C0.639793 40.0723 0.05387 42.7814 0.000146311 45.5261C-0.00141536 45.5878 0.00953792 45.6492 0.0323611 45.7066C0.0551842 45.764 0.0894152 45.8164 0.133037 45.8605C0.176659 45.9047 0.228789 45.9398 0.286356 45.9637C0.343923 45.9877 0.405762 46 0.468228 46H3.97884C4.23629 46 4.44107 45.7977 4.44693 45.5492C4.56395 41.0879 6.37776 36.9098 9.58412 33.743C12.9017 30.4663 17.3075 28.6633 22 28.6633C26.6925 28.6633 31.0983 30.4663 34.4159 33.743C37.6222 36.9098 39.4361 41.0879 39.5531 45.5492C39.5589 45.8035 39.7637 46 40.0212 46H43.5318C43.5942 46 43.6561 45.9877 43.7136 45.9637C43.7712 45.9398 43.8233 45.9047 43.867 45.8605C43.9106 45.8164 43.9448 45.764 43.9676 45.7066C43.9905 45.6492 44.0014 45.5878 43.9999 45.5261C43.9413 42.7638 43.3621 40.0766 42.2738 37.5397ZM22 24.2714C19.3144 24.2714 16.7867 23.2369 14.8852 21.3588C12.9836 19.4807 11.9362 16.9842 11.9362 14.3317C11.9362 11.6791 12.9836 9.18266 14.8852 7.30452C16.7867 5.42638 19.3144 4.39196 22 4.39196C24.6856 4.39196 27.2133 5.42638 29.1148 7.30452C31.0164 9.18266 32.0638 11.6791 32.0638 14.3317C32.0638 16.9842 31.0164 19.4807 29.1148 21.3588C27.2133 23.2369 24.6856 24.2714 22 24.2714Z" fill="black"/>
</svg>
