<svg width="36" height="30" viewBox="0 0 36 30" fill="none" xmlns="http://www.w3.org/2000/svg">
<path d="M34 2.01457C34 2.01457 31.0647 3.74175 29.4327 4.23151C28.5567 3.2281 27.3925 2.51692 26.0975 2.19414C24.8025 1.87135 23.4393 1.95255 22.1921 2.42674C20.945 2.90093 19.8741 3.74523 19.1243 4.84546C18.3746 5.94569 17.9821 7.24877 18 8.57844V10.0274C15.4438 10.0934 12.9109 9.5287 10.6269 8.38348C8.3429 7.23825 6.37864 5.5481 4.90909 3.46355C4.90909 3.46355 -0.909091 16.5043 12.1818 22.3003C9.18622 24.3259 5.61768 25.3416 2 25.1982C15.0909 32.4431 31.0909 25.1982 31.0909 8.53497C31.0909 8.13216 31.0502 7.72934 30.9745 7.33232C32.4582 5.87465 34 2.01457 34 2.01457Z" stroke="black" stroke-width="2.5" stroke-linecap="round" stroke-linejoin="round"/>
</svg>
