<svg width="95" height="34" viewBox="0 0 95 34" fill="none" xmlns="http://www.w3.org/2000/svg">
<path d="M3.99 26L6.23 19.7H16.87L19.145 26H22.75L13.475 0.694998H9.66L0.42 26H3.99ZM11.13 6.155C11.305 5.63 11.48 5.035 11.55 4.685C11.62 5.07 11.795 5.665 11.97 6.155L15.855 16.725H7.28L11.13 6.155ZM35.3538 8.745C34.6888 8.605 34.1988 8.535 33.6038 8.535C31.2588 8.535 29.5438 9.725 28.8438 11.51L28.6338 8.92H25.5538V26H28.8438V16.935C28.8438 13.645 30.7688 11.755 33.8838 11.755H35.3538V8.745ZM40.0496 4.825C41.2396 4.825 42.2196 3.845 42.2196 2.655C42.2196 1.43 41.2396 0.484999 40.0496 0.484999C38.8596 0.484999 37.8796 1.43 37.8796 2.655C37.8796 3.845 38.8596 4.825 40.0496 4.825ZM38.4396 26H41.7296V8.885H38.4396V26ZM46.506 33.665H49.796V23.2C50.916 25.3 53.191 26.455 55.921 26.455C60.996 26.455 63.866 22.535 63.866 17.32C63.866 12.07 60.821 8.395 55.921 8.395C53.191 8.395 50.881 9.62 49.726 11.965L49.481 8.885H46.506V33.665ZM49.831 17.46C49.831 13.89 51.861 11.405 55.221 11.405C58.581 11.405 60.576 13.925 60.576 17.46C60.576 20.96 58.581 23.48 55.221 23.48C51.861 23.48 49.831 20.96 49.831 17.46ZM72.1514 26V11.65H75.5114V8.885H72.1514V3.53H68.8614V8.885H65.5014V11.65H68.8614V26H72.1514ZM77.1731 17.425C77.1731 22.71 80.9531 26.42 86.0981 26.42C91.2081 26.42 94.9881 22.71 94.9881 17.425C94.9881 12.14 91.2081 8.43 86.0981 8.43C80.9531 8.43 77.1731 12.14 77.1731 17.425ZM80.4981 17.425C80.4981 13.855 82.7731 11.37 86.0981 11.37C89.3881 11.37 91.6981 13.855 91.6981 17.425C91.6981 20.995 89.3881 23.48 86.0981 23.48C82.7731 23.48 80.4981 20.995 80.4981 17.425Z" fill="white"/>
</svg>
