<svg width="26" height="22" viewBox="0 0 26 22" fill="none" xmlns="http://www.w3.org/2000/svg">
<path d="M0 21C0 20.4477 0.447715 20 1 20H25C25.5523 20 26 20.4477 26 21C26 21.5523 25.5523 22 25 22H1C0.447716 22 0 21.5523 0 21Z" fill="white"/>
<path d="M0 11C0 10.4477 0.447715 10 1 10H25C25.5523 10 26 10.4477 26 11C26 11.5523 25.5523 12 25 12H1C0.447716 12 0 11.5523 0 11Z" fill="white"/>
<path d="M0 1C0 0.447715 0.447715 0 1 0H25C25.5523 0 26 0.447715 26 1C26 1.55228 25.5523 2 25 2H1C0.447716 2 0 1.55228 0 1Z" fill="white"/>
</svg>
