<svg width="28" height="7" viewBox="0 0 28 7" fill="none" xmlns="http://www.w3.org/2000/svg">
<path d="M24.4819 6.226C24.0731 6.22613 23.6683 6.14574 23.2906 5.98942C22.9128 5.8331 22.5696 5.60391 22.2804 5.31493C21.9912 5.02595 21.7618 4.68285 21.6053 4.30522C21.4487 3.92758 21.3681 3.52281 21.3679 3.114C21.3678 2.7052 21.4482 2.30037 21.6045 1.92263C21.7608 1.54489 21.99 1.20165 22.279 0.912483C22.568 0.623322 22.9111 0.393911 23.2887 0.237347C23.6663 0.0807826 24.0711 0.000131474 24.4799 1.60828e-07C25.3055 -0.000265038 26.0974 0.327457 26.6814 0.91107C27.2654 1.49468 27.5937 2.28638 27.5939 3.112C27.5942 3.93762 27.2665 4.72953 26.6829 5.31352C26.0992 5.8975 25.3075 6.22573 24.4819 6.226Z" fill="black"/>
<path d="M13.798 6.22595C15.5167 6.22595 16.91 4.83266 16.91 3.11395C16.91 1.39524 15.5167 0.00195312 13.798 0.00195312C12.0793 0.00195312 10.686 1.39524 10.686 3.11395C10.686 4.83266 12.0793 6.22595 13.798 6.22595Z" fill="black"/>
<path d="M3.112 6.22595C4.83071 6.22595 6.224 4.83266 6.224 3.11395C6.224 1.39524 4.83071 0.00195312 3.112 0.00195312C1.39329 0.00195312 0 1.39524 0 3.11395C0 4.83266 1.39329 6.22595 3.112 6.22595Z" fill="black"/>
</svg>
